<svg xmlns="http://www.w3.org/2000/svg" viewBox="0 0 1000 1000">
  <g fill="#000">
    <path d="M 500,500 m -200,0 a 200,200 0 1,1 400,0 a 200,200 0 1,1 -400,0" />
    <path d="M 500,500 m -150,-100 a 180,220 0 1,1 300,200 a 180,220 0 1,1 -300,-200" />
    <path d="M 500,500 m 50,-200 a 250,150 0 1,1 -100,400 a 250,150 0 1,1 100,-400" />
    <polygon points="500,500 700,200 550,400" />
    <polygon points="500,500 850,550 600,520" />
    <polygon points="500,500 750,850 580,650" />
    <polygon points="500,500 350,900 450,650" />
    <polygon points="500,500 150,650 380,580" />
    <polygon points="500,500 100,300 400,420" />
    <polygon points="500,500 300,100 450,380" />
    <polygon points="500,500 550,50 520,380" />
    <polygon points="500,500 850,350 650,450" />
    <polygon points="500,500 200,800 450,550" />
    <circle cx="750" cy="180" r="30"/>
    <circle cx="820" cy="240" r="15"/>
    <circle cx="680" cy="120" r="20"/>
    <circle cx="890" cy="150" r="10"/>
    <circle cx="900" cy="500" r="25"/>
    <circle cx="950" cy="580" r="12"/>
    <circle cx="880" cy="650" r="18"/>
    <circle cx="800" cy="800" r="35"/>
    <circle cx="720" cy="920" r="15"/>
    <circle cx="880" cy="850" r="22"/>
    <circle cx="250" cy="850" r="40"/>
    <circle cx="150" cy="780" r="18"/>
    <circle cx="350" cy="950" r="12"/>
    <circle cx="180" cy="920" r="25"/>
    <circle cx="80" cy="550" r="28"/>
    <circle cx="120" cy="450" r="15"/>
    <circle cx="50" cy="380" r="20"/>
    <circle cx="200" cy="200" r="32"/>
    <circle cx="120" cy="250" r="18"/>
    <circle cx="300" cy="120" r="24"/>
    <circle cx="220" cy="80" r="14"/>
    <circle cx="780" cy="300" r="8"/>
    <circle cx="600" cy="150" r="6"/>
    <circle cx="400" cy="80" r="7"/>
    <circle cx="850" cy="420" r="5"/>
    <circle cx="920" cy="380" r="9"/>
    <circle cx="750" cy="700" r="8"/>
    <circle cx="600" cy="880" r="6"/>
    <circle cx="300" cy="750" r="7"/>
    <circle cx="150" cy="600" r="9"/>
    <circle cx="280" cy="300" r="5"/>
  </g>
</svg>
